# MagicaVoxel @ Ephtracy

# group
o 

# material
mtllib escalera.mtl
usemtl palette

# normals
vn -1 0 0
vn 1 0 0
vn 0 0 1
vn 0 0 -1
vn 0 -1 0
vn 0 1 0

# texcoords
vt 0.525391 0.5
vt 0.708984 0.5

# verts
v -0.9 0 0.5
v -0.9 0 0.4
v -0.9 0 -0.1
v -0.9 4 0.5
v -0.9 4 0.4
v -0.9 4 -0.1
v -0.1 0 0.5
v -0.1 0 0.4
v -0.1 0 -0.1
v -0.1 0.2 0.3
v -0.1 0.2 0.2
v -0.1 0.2 0.1
v -0.1 0.3 0.3
v -0.1 0.3 0.2
v -0.1 0.3 0.1
v -0.1 0.6 0.3
v -0.1 0.6 0.2
v -0.1 0.6 0.1
v -0.1 0.8 0.3
v -0.1 0.8 0.2
v -0.1 0.8 0.1
v -0.1 1.1 0.3
v -0.1 1.1 0.2
v -0.1 1.1 0.1
v -0.1 1.3 0.3
v -0.1 1.3 0.2
v -0.1 1.3 0.1
v -0.1 1.6 0.3
v -0.1 1.6 0.2
v -0.1 1.6 0.1
v -0.1 1.8 0.3
v -0.1 1.8 0.2
v -0.1 1.8 0.1
v -0.1 2.1 0.3
v -0.1 2.1 0.2
v -0.1 2.1 0.1
v -0.1 2.3 0.3
v -0.1 2.3 0.2
v -0.1 2.3 0.1
v -0.1 2.6 0.3
v -0.1 2.6 0.2
v -0.1 2.6 0.1
v -0.1 2.8 0.3
v -0.1 2.8 0.2
v -0.1 2.8 0.1
v -0.1 3.1 0.3
v -0.1 3.1 0.2
v -0.1 3.1 0.1
v -0.1 3.3 0.3
v -0.1 3.3 0.2
v -0.1 3.3 0.1
v -0.1 3.6 0.3
v -0.1 3.6 0.2
v -0.1 3.6 0.1
v -0.1 3.8 0.3
v -0.1 3.8 0.2
v -0.1 3.8 0.1
v -0.1 4 0.5
v -0.1 4 0.4
v -0.1 4 -0.1
v -0.7 0 0.5
v -0.7 0 -0.1
v -0.7 0.2 0.3
v -0.7 0.2 0.2
v -0.7 0.2 0.1
v -0.7 0.3 0.3
v -0.7 0.3 0.2
v -0.7 0.3 0.1
v -0.7 0.6 0.3
v -0.7 0.6 0.2
v -0.7 0.6 0.1
v -0.7 0.8 0.3
v -0.7 0.8 0.2
v -0.7 0.8 0.1
v -0.7 1.1 0.3
v -0.7 1.1 0.2
v -0.7 1.1 0.1
v -0.7 1.3 0.3
v -0.7 1.3 0.2
v -0.7 1.3 0.1
v -0.7 1.6 0.3
v -0.7 1.6 0.2
v -0.7 1.6 0.1
v -0.7 1.8 0.3
v -0.7 1.8 0.2
v -0.7 1.8 0.1
v -0.7 2.1 0.3
v -0.7 2.1 0.2
v -0.7 2.1 0.1
v -0.7 2.3 0.3
v -0.7 2.3 0.2
v -0.7 2.3 0.1
v -0.7 2.6 0.3
v -0.7 2.6 0.2
v -0.7 2.6 0.1
v -0.7 2.8 0.3
v -0.7 2.8 0.2
v -0.7 2.8 0.1
v -0.7 3.1 0.3
v -0.7 3.1 0.2
v -0.7 3.1 0.1
v -0.7 3.3 0.3
v -0.7 3.3 0.2
v -0.7 3.3 0.1
v -0.7 3.6 0.3
v -0.7 3.6 0.2
v -0.7 3.6 0.1
v -0.7 3.8 0.3
v -0.7 3.8 0.2
v -0.7 3.8 0.1
v -0.7 4 0.5
v -0.7 4 -0.1
v 0.1 0 0.5
v 0.1 0 -0.1
v 0.1 4 0.5
v 0.1 4 -0.1
v -0.9 0 0.5
v -0.9 4 0.5
v -0.7 0 0.5
v -0.7 4 0.5
v -0.1 0 0.5
v -0.1 4 0.5
v 0.1 0 0.5
v 0.1 4 0.5
v -0.7 0.2 0.3
v -0.7 0.3 0.3
v -0.7 0.6 0.3
v -0.7 0.8 0.3
v -0.7 1.1 0.3
v -0.7 1.3 0.3
v -0.7 1.6 0.3
v -0.7 1.8 0.3
v -0.7 2.1 0.3
v -0.7 2.3 0.3
v -0.7 2.6 0.3
v -0.7 2.8 0.3
v -0.7 3.1 0.3
v -0.7 3.3 0.3
v -0.7 3.6 0.3
v -0.7 3.8 0.3
v -0.1 0.2 0.3
v -0.1 0.3 0.3
v -0.1 0.6 0.3
v -0.1 0.8 0.3
v -0.1 1.1 0.3
v -0.1 1.3 0.3
v -0.1 1.6 0.3
v -0.1 1.8 0.3
v -0.1 2.1 0.3
v -0.1 2.3 0.3
v -0.1 2.6 0.3
v -0.1 2.8 0.3
v -0.1 3.1 0.3
v -0.1 3.3 0.3
v -0.1 3.6 0.3
v -0.1 3.8 0.3
v -0.7 0.2 0.1
v -0.7 0.3 0.1
v -0.7 0.6 0.1
v -0.7 0.8 0.1
v -0.7 1.1 0.1
v -0.7 1.3 0.1
v -0.7 1.6 0.1
v -0.7 1.8 0.1
v -0.7 2.1 0.1
v -0.7 2.3 0.1
v -0.7 2.6 0.1
v -0.7 2.8 0.1
v -0.7 3.1 0.1
v -0.7 3.3 0.1
v -0.7 3.6 0.1
v -0.7 3.8 0.1
v -0.1 0.2 0.1
v -0.1 0.3 0.1
v -0.1 0.6 0.1
v -0.1 0.8 0.1
v -0.1 1.1 0.1
v -0.1 1.3 0.1
v -0.1 1.6 0.1
v -0.1 1.8 0.1
v -0.1 2.1 0.1
v -0.1 2.3 0.1
v -0.1 2.6 0.1
v -0.1 2.8 0.1
v -0.1 3.1 0.1
v -0.1 3.3 0.1
v -0.1 3.6 0.1
v -0.1 3.8 0.1
v -0.9 0 -0.1
v -0.9 4 -0.1
v -0.8 0 -0.1
v -0.8 4 -0.1
v -0.7 0 -0.1
v -0.7 4 -0.1
v -0.1 0 -0.1
v -0.1 4 -0.1
v 0 0 -0.1
v 0 4 -0.1
v 0.1 0 -0.1
v 0.1 4 -0.1
v -0.9 0 0.5
v -0.7 0 0.5
v -0.1 0 0.5
v 0.1 0 0.5
v -0.9 0 0.4
v -0.8 0 0.4
v -0.1 0 0.4
v 0 0 0.4
v -0.9 0 -0.1
v -0.8 0 -0.1
v -0.7 0 -0.1
v -0.1 0 -0.1
v 0 0 -0.1
v 0.1 0 -0.1
v -0.7 0.2 0.3
v -0.1 0.2 0.3
v -0.7 0.2 0.2
v -0.1 0.2 0.2
v -0.7 0.2 0.1
v -0.1 0.2 0.1
v -0.7 0.6 0.3
v -0.1 0.6 0.3
v -0.7 0.6 0.2
v -0.1 0.6 0.2
v -0.7 0.6 0.1
v -0.1 0.6 0.1
v -0.7 1.1 0.3
v -0.1 1.1 0.3
v -0.7 1.1 0.2
v -0.1 1.1 0.2
v -0.7 1.1 0.1
v -0.1 1.1 0.1
v -0.7 1.6 0.3
v -0.1 1.6 0.3
v -0.7 1.6 0.2
v -0.1 1.6 0.2
v -0.7 1.6 0.1
v -0.1 1.6 0.1
v -0.7 2.1 0.3
v -0.1 2.1 0.3
v -0.7 2.1 0.2
v -0.1 2.1 0.2
v -0.7 2.1 0.1
v -0.1 2.1 0.1
v -0.7 2.6 0.3
v -0.1 2.6 0.3
v -0.7 2.6 0.2
v -0.1 2.6 0.2
v -0.7 2.6 0.1
v -0.1 2.6 0.1
v -0.7 3.1 0.3
v -0.1 3.1 0.3
v -0.7 3.1 0.2
v -0.1 3.1 0.2
v -0.7 3.1 0.1
v -0.1 3.1 0.1
v -0.7 3.6 0.3
v -0.1 3.6 0.3
v -0.7 3.6 0.2
v -0.1 3.6 0.2
v -0.7 3.6 0.1
v -0.1 3.6 0.1
v -0.7 0.3 0.3
v -0.1 0.3 0.3
v -0.7 0.3 0.2
v -0.1 0.3 0.2
v -0.7 0.3 0.1
v -0.1 0.3 0.1
v -0.7 0.8 0.3
v -0.1 0.8 0.3
v -0.7 0.8 0.2
v -0.1 0.8 0.2
v -0.7 0.8 0.1
v -0.1 0.8 0.1
v -0.7 1.3 0.3
v -0.1 1.3 0.3
v -0.7 1.3 0.2
v -0.1 1.3 0.2
v -0.7 1.3 0.1
v -0.1 1.3 0.1
v -0.7 1.8 0.3
v -0.1 1.8 0.3
v -0.7 1.8 0.2
v -0.1 1.8 0.2
v -0.7 1.8 0.1
v -0.1 1.8 0.1
v -0.7 2.3 0.3
v -0.1 2.3 0.3
v -0.7 2.3 0.2
v -0.1 2.3 0.2
v -0.7 2.3 0.1
v -0.1 2.3 0.1
v -0.7 2.8 0.3
v -0.1 2.8 0.3
v -0.7 2.8 0.2
v -0.1 2.8 0.2
v -0.7 2.8 0.1
v -0.1 2.8 0.1
v -0.7 3.3 0.3
v -0.1 3.3 0.3
v -0.7 3.3 0.2
v -0.1 3.3 0.2
v -0.7 3.3 0.1
v -0.1 3.3 0.1
v -0.7 3.8 0.3
v -0.1 3.8 0.3
v -0.7 3.8 0.2
v -0.1 3.8 0.2
v -0.7 3.8 0.1
v -0.1 3.8 0.1
v -0.9 4 0.5
v -0.7 4 0.5
v -0.1 4 0.5
v 0.1 4 0.5
v -0.9 4 0.4
v -0.8 4 0.4
v -0.1 4 0.4
v 0 4 0.4
v -0.9 4 -0.1
v -0.8 4 -0.1
v -0.7 4 -0.1
v -0.1 4 -0.1
v 0 4 -0.1
v 0.1 4 -0.1

# faces
f 4/2/1 2/2/1 1/2/1
f 5/1/1 3/1/1 2/1/1
f 5/2/1 2/2/1 4/2/1
f 6/1/1 3/1/1 5/1/1
f 10/1/1 9/1/1 8/1/1
f 11/1/1 9/1/1 10/1/1
f 12/1/1 9/1/1 11/1/1
f 13/1/1 10/1/1 8/1/1
f 15/1/1 9/1/1 12/1/1
f 16/1/1 14/1/1 13/1/1
f 16/1/1 15/1/1 14/1/1
f 16/1/1 13/1/1 8/1/1
f 17/1/1 15/1/1 16/1/1
f 18/1/1 9/1/1 15/1/1
f 18/1/1 15/1/1 17/1/1
f 19/1/1 16/1/1 8/1/1
f 21/1/1 9/1/1 18/1/1
f 22/1/1 20/1/1 19/1/1
f 22/1/1 21/1/1 20/1/1
f 22/1/1 19/1/1 8/1/1
f 23/1/1 21/1/1 22/1/1
f 24/1/1 9/1/1 21/1/1
f 24/1/1 21/1/1 23/1/1
f 25/1/1 22/1/1 8/1/1
f 27/1/1 9/1/1 24/1/1
f 28/1/1 26/1/1 25/1/1
f 28/1/1 27/1/1 26/1/1
f 28/1/1 25/1/1 8/1/1
f 29/1/1 27/1/1 28/1/1
f 30/1/1 9/1/1 27/1/1
f 30/1/1 27/1/1 29/1/1
f 31/1/1 28/1/1 8/1/1
f 33/1/1 9/1/1 30/1/1
f 34/1/1 32/1/1 31/1/1
f 34/1/1 33/1/1 32/1/1
f 34/1/1 31/1/1 8/1/1
f 35/1/1 33/1/1 34/1/1
f 36/1/1 9/1/1 33/1/1
f 36/1/1 33/1/1 35/1/1
f 37/1/1 34/1/1 8/1/1
f 39/1/1 9/1/1 36/1/1
f 40/1/1 38/1/1 37/1/1
f 40/1/1 39/1/1 38/1/1
f 40/1/1 37/1/1 8/1/1
f 41/1/1 39/1/1 40/1/1
f 42/1/1 9/1/1 39/1/1
f 42/1/1 39/1/1 41/1/1
f 43/1/1 40/1/1 8/1/1
f 45/1/1 9/1/1 42/1/1
f 46/1/1 44/1/1 43/1/1
f 46/1/1 45/1/1 44/1/1
f 46/1/1 43/1/1 8/1/1
f 47/1/1 45/1/1 46/1/1
f 48/1/1 9/1/1 45/1/1
f 48/1/1 45/1/1 47/1/1
f 49/1/1 46/1/1 8/1/1
f 51/1/1 9/1/1 48/1/1
f 52/1/1 50/1/1 49/1/1
f 52/1/1 51/1/1 50/1/1
f 52/1/1 49/1/1 8/1/1
f 53/1/1 51/1/1 52/1/1
f 54/1/1 9/1/1 51/1/1
f 54/1/1 51/1/1 53/1/1
f 55/1/1 52/1/1 8/1/1
f 57/1/1 9/1/1 54/1/1
f 58/2/1 8/2/1 7/2/1
f 59/1/1 57/1/1 56/1/1
f 59/2/1 8/2/1 58/2/1
f 59/1/1 56/1/1 55/1/1
f 59/1/1 55/1/1 8/1/1
f 60/1/1 9/1/1 57/1/1
f 60/1/1 57/1/1 59/1/1
f 61/2/2 62/2/2 63/2/2
f 63/2/2 62/2/2 64/2/2
f 64/2/2 62/2/2 65/2/2
f 61/2/2 63/2/2 66/2/2
f 65/2/2 62/2/2 68/2/2
f 66/2/2 67/2/2 69/2/2
f 67/2/2 68/2/2 69/2/2
f 61/2/2 66/2/2 69/2/2
f 69/2/2 68/2/2 70/2/2
f 68/2/2 62/2/2 71/2/2
f 70/2/2 68/2/2 71/2/2
f 61/2/2 69/2/2 72/2/2
f 71/2/2 62/2/2 74/2/2
f 72/2/2 73/2/2 75/2/2
f 73/2/2 74/2/2 75/2/2
f 61/2/2 72/2/2 75/2/2
f 75/2/2 74/2/2 76/2/2
f 74/2/2 62/2/2 77/2/2
f 76/2/2 74/2/2 77/2/2
f 61/2/2 75/2/2 78/2/2
f 77/2/2 62/2/2 80/2/2
f 78/2/2 79/2/2 81/2/2
f 79/2/2 80/2/2 81/2/2
f 61/2/2 78/2/2 81/2/2
f 81/2/2 80/2/2 82/2/2
f 80/2/2 62/2/2 83/2/2
f 82/2/2 80/2/2 83/2/2
f 61/2/2 81/2/2 84/2/2
f 83/2/2 62/2/2 86/2/2
f 84/2/2 85/2/2 87/2/2
f 85/2/2 86/2/2 87/2/2
f 61/2/2 84/2/2 87/2/2
f 87/2/2 86/2/2 88/2/2
f 86/2/2 62/2/2 89/2/2
f 88/2/2 86/2/2 89/2/2
f 61/2/2 87/2/2 90/2/2
f 89/2/2 62/2/2 92/2/2
f 90/2/2 91/2/2 93/2/2
f 91/2/2 92/2/2 93/2/2
f 61/2/2 90/2/2 93/2/2
f 93/2/2 92/2/2 94/2/2
f 92/2/2 62/2/2 95/2/2
f 94/2/2 92/2/2 95/2/2
f 61/2/2 93/2/2 96/2/2
f 95/2/2 62/2/2 98/2/2
f 96/2/2 97/2/2 99/2/2
f 97/2/2 98/2/2 99/2/2
f 61/2/2 96/2/2 99/2/2
f 99/2/2 98/2/2 100/2/2
f 98/2/2 62/2/2 101/2/2
f 100/2/2 98/2/2 101/2/2
f 61/2/2 99/2/2 102/2/2
f 101/2/2 62/2/2 104/2/2
f 102/2/2 103/2/2 105/2/2
f 103/2/2 104/2/2 105/2/2
f 61/2/2 102/2/2 105/2/2
f 105/2/2 104/2/2 106/2/2
f 104/2/2 62/2/2 107/2/2
f 106/2/2 104/2/2 107/2/2
f 61/2/2 105/2/2 108/2/2
f 107/2/2 62/2/2 110/2/2
f 108/2/2 109/2/2 111/2/2
f 109/2/2 110/2/2 111/2/2
f 61/2/2 108/2/2 111/2/2
f 110/2/2 62/2/2 112/2/2
f 111/2/2 110/2/2 112/2/2
f 113/2/2 114/2/2 115/2/2
f 115/2/2 114/2/2 116/2/2
f 119/2/3 118/2/3 117/2/3
f 120/2/3 118/2/3 119/2/3
f 123/2/3 122/2/3 121/2/3
f 124/2/3 122/2/3 123/2/3
f 141/2/3 126/2/3 125/2/3
f 142/2/3 126/2/3 141/2/3
f 143/2/3 128/2/3 127/2/3
f 144/2/3 128/2/3 143/2/3
f 145/2/3 130/2/3 129/2/3
f 146/2/3 130/2/3 145/2/3
f 147/2/3 132/2/3 131/2/3
f 148/2/3 132/2/3 147/2/3
f 149/2/3 134/2/3 133/2/3
f 150/2/3 134/2/3 149/2/3
f 151/2/3 136/2/3 135/2/3
f 152/2/3 136/2/3 151/2/3
f 153/2/3 138/2/3 137/2/3
f 154/2/3 138/2/3 153/2/3
f 155/2/3 140/2/3 139/2/3
f 156/2/3 140/2/3 155/2/3
f 157/1/4 158/1/4 173/1/4
f 173/1/4 158/1/4 174/1/4
f 159/1/4 160/1/4 175/1/4
f 175/1/4 160/1/4 176/1/4
f 161/1/4 162/1/4 177/1/4
f 177/1/4 162/1/4 178/1/4
f 163/1/4 164/1/4 179/1/4
f 179/1/4 164/1/4 180/1/4
f 165/1/4 166/1/4 181/1/4
f 181/1/4 166/1/4 182/1/4
f 167/1/4 168/1/4 183/1/4
f 183/1/4 168/1/4 184/1/4
f 169/1/4 170/1/4 185/1/4
f 185/1/4 170/1/4 186/1/4
f 171/1/4 172/1/4 187/1/4
f 187/1/4 172/1/4 188/1/4
f 189/1/4 190/1/4 191/1/4
f 191/1/4 190/1/4 192/1/4
f 191/2/4 192/2/4 193/2/4
f 193/2/4 192/2/4 194/2/4
f 195/1/4 196/1/4 197/1/4
f 197/1/4 196/1/4 198/1/4
f 197/2/4 198/2/4 199/2/4
f 199/2/4 198/2/4 200/2/4
f 205/2/5 202/2/5 201/2/5
f 206/2/5 202/2/5 205/2/5
f 207/2/5 204/2/5 203/2/5
f 208/2/5 204/2/5 207/2/5
f 209/1/5 206/1/5 205/1/5
f 210/2/5 202/2/5 206/2/5
f 210/1/5 206/1/5 209/1/5
f 211/2/5 202/2/5 210/2/5
f 212/1/5 208/1/5 207/1/5
f 213/2/5 204/2/5 208/2/5
f 213/1/5 208/1/5 212/1/5
f 214/2/5 204/2/5 213/2/5
f 217/2/5 216/2/5 215/2/5
f 218/2/5 216/2/5 217/2/5
f 219/1/5 218/1/5 217/1/5
f 220/1/5 218/1/5 219/1/5
f 223/2/5 222/2/5 221/2/5
f 224/2/5 222/2/5 223/2/5
f 225/1/5 224/1/5 223/1/5
f 226/1/5 224/1/5 225/1/5
f 229/2/5 228/2/5 227/2/5
f 230/2/5 228/2/5 229/2/5
f 231/1/5 230/1/5 229/1/5
f 232/1/5 230/1/5 231/1/5
f 235/2/5 234/2/5 233/2/5
f 236/2/5 234/2/5 235/2/5
f 237/1/5 236/1/5 235/1/5
f 238/1/5 236/1/5 237/1/5
f 241/2/5 240/2/5 239/2/5
f 242/2/5 240/2/5 241/2/5
f 243/1/5 242/1/5 241/1/5
f 244/1/5 242/1/5 243/1/5
f 247/2/5 246/2/5 245/2/5
f 248/2/5 246/2/5 247/2/5
f 249/1/5 248/1/5 247/1/5
f 250/1/5 248/1/5 249/1/5
f 253/2/5 252/2/5 251/2/5
f 254/2/5 252/2/5 253/2/5
f 255/1/5 254/1/5 253/1/5
f 256/1/5 254/1/5 255/1/5
f 259/2/5 258/2/5 257/2/5
f 260/2/5 258/2/5 259/2/5
f 261/1/5 260/1/5 259/1/5
f 262/1/5 260/1/5 261/1/5
f 263/2/6 264/2/6 265/2/6
f 265/2/6 264/2/6 266/2/6
f 265/1/6 266/1/6 267/1/6
f 267/1/6 266/1/6 268/1/6
f 269/2/6 270/2/6 271/2/6
f 271/2/6 270/2/6 272/2/6
f 271/1/6 272/1/6 273/1/6
f 273/1/6 272/1/6 274/1/6
f 275/2/6 276/2/6 277/2/6
f 277/2/6 276/2/6 278/2/6
f 277/1/6 278/1/6 279/1/6
f 279/1/6 278/1/6 280/1/6
f 281/2/6 282/2/6 283/2/6
f 283/2/6 282/2/6 284/2/6
f 283/1/6 284/1/6 285/1/6
f 285/1/6 284/1/6 286/1/6
f 287/2/6 288/2/6 289/2/6
f 289/2/6 288/2/6 290/2/6
f 289/1/6 290/1/6 291/1/6
f 291/1/6 290/1/6 292/1/6
f 293/2/6 294/2/6 295/2/6
f 295/2/6 294/2/6 296/2/6
f 295/1/6 296/1/6 297/1/6
f 297/1/6 296/1/6 298/1/6
f 299/2/6 300/2/6 301/2/6
f 301/2/6 300/2/6 302/2/6
f 301/1/6 302/1/6 303/1/6
f 303/1/6 302/1/6 304/1/6
f 305/2/6 306/2/6 307/2/6
f 307/2/6 306/2/6 308/2/6
f 307/1/6 308/1/6 309/1/6
f 309/1/6 308/1/6 310/1/6
f 311/2/6 312/2/6 315/2/6
f 315/2/6 312/2/6 316/2/6
f 313/2/6 314/2/6 317/2/6
f 317/2/6 314/2/6 318/2/6
f 315/1/6 316/1/6 319/1/6
f 316/2/6 312/2/6 320/2/6
f 319/1/6 316/1/6 320/1/6
f 320/2/6 312/2/6 321/2/6
f 317/1/6 318/1/6 322/1/6
f 318/2/6 314/2/6 323/2/6
f 322/1/6 318/1/6 323/1/6
f 323/2/6 314/2/6 324/2/6
